{
	"asset":{
		"generator":"Khronos glTF Blender I/O v3.6.27",
		"version":"2.0"
	},
	"extensionsUsed":[
		"KHR_materials_specular",
		"KHR_materials_ior",
		"KHR_materials_emissive_strength"
	],
	"scene":0,
	"scenes":[
		{
			"extras":{
				"uuid":"ef689418-ed16-4db6-bb08-2fce4e03a9c6",
				"assets reported":{},
				"assets used":{}
			},
			"name":"Scene",
			"nodes":[
				0,
				1,
				2,
				5
			]
		}
	],
	"nodes":[
		{
			"mesh":0,
			"name":"Cylinder",
			"rotation":[
				0.7071068286895752,
				0,
				0,
				0.7071068286895752
			],
			"scale":[
				1,
				0.09000004827976227,
				1
			],
			"translation":[
				0,
				1.3199999332427979,
				0
			]
		},
		{
			"mesh":1,
			"name":"Text",
			"rotation":[
				0.7071068286895752,
				0,
				0,
				0.7071068286895752
			],
			"scale":[
				0.48082399368286133,
				1,
				0.48082399368286133
			],
			"translation":[
				0.048841074109077454,
				1.2217756509780884,
				0.09574425220489502
			]
		},
		{
			"mesh":2,
			"name":"Text.001",
			"rotation":[
				0.7071068286895752,
				0,
				0,
				0.7071068286895752
			],
			"scale":[
				0.20082400739192963,
				1,
				0.20082400739192963
			],
			"translation":[
				-0.21115891635417938,
				1.0417757034301758,
				0.09574425220489502
			]
		},
		{
			"mesh":3,
			"name":"Text.002",
			"scale":[
				0.20082400739192963,
				11.111104965209961,
				0.20082400739192963
			],
			"translation":[
				0,
				1.0638246536254883,
				0.27822422981262207
			]
		},
		{
			"mesh":4,
			"name":"Text.003",
			"scale":[
				0.36082398891448975,
				11.111104965209961,
				0.48082399368286133
			],
			"translation":[
				0.008841075003147125,
				1.0638245344161987,
				0.09822427481412888
			]
		},
		{
			"children":[
				3,
				4
			],
			"mesh":5,
			"name":"Cylinder.001",
			"rotation":[
				0,
				-0.7071068286895752,
				0.7071068286895752,
				3.0908619663705394e-08
			],
			"scale":[
				1,
				0.09000004827976227,
				1
			],
			"translation":[
				0,
				1.3199999332427979,
				-0.09999999403953552
			]
		}
	],
	"materials":[
		{
			"doubleSided":true,
			"extensions":{
				"KHR_materials_specular":{
					"specularColorFactor":[
						1.6711536456246128,
						1.6711536456246128,
						1.6711536456246128
					]
				},
				"KHR_materials_ior":{
					"ior":1.4500000476837158
				}
			},
			"name":"Material.004",
			"pbrMetallicRoughness":{
				"baseColorFactor":[
					0.800000011920929,
					0.800000011920929,
					0.800000011920929,
					1
				],
				"roughnessFactor":0
			}
		},
		{
			"doubleSided":true,
			"emissiveFactor":[
				1,
				1,
				1
			],
			"extensions":{
				"KHR_materials_emissive_strength":{
					"emissiveStrength":100
				}
			},
			"name":"Material.008",
			"pbrMetallicRoughness":{
				"baseColorFactor":[
					0,
					0,
					0,
					1
				]
			}
		},
		{
			"doubleSided":true,
			"emissiveFactor":[
				1,
				1,
				1
			],
			"extensions":{
				"KHR_materials_emissive_strength":{
					"emissiveStrength":55.962324142456055
				}
			},
			"name":"Material.009",
			"pbrMetallicRoughness":{
				"baseColorFactor":[
					0,
					0,
					0,
					1
				]
			}
		},
		{
			"doubleSided":true,
			"emissiveFactor":[
				1,
				1,
				1
			],
			"extensions":{
				"KHR_materials_emissive_strength":{
					"emissiveStrength":100
				}
			},
			"name":"Material.010",
			"pbrMetallicRoughness":{
				"baseColorFactor":[
					0,
					0,
					0,
					1
				]
			}
		},
		{
			"doubleSided":true,
			"emissiveFactor":[
				1,
				1,
				1
			],
			"extensions":{
				"KHR_materials_emissive_strength":{
					"emissiveStrength":100
				}
			},
			"name":"Material.011",
			"pbrMetallicRoughness":{
				"baseColorFactor":[
					0,
					0,
					0,
					1
				]
			}
		},
		{
			"doubleSided":true,
			"extensions":{
				"KHR_materials_specular":{
					"specularColorFactor":[
						1.6711536456246128,
						1.6711536456246128,
						1.6711536456246128
					]
				},
				"KHR_materials_ior":{
					"ior":1.4500000476837158
				}
			},
			"name":"Material.012",
			"pbrMetallicRoughness":{
				"baseColorFactor":[
					0.800000011920929,
					0.800000011920929,
					0.800000011920929,
					1
				],
				"roughnessFactor":0
			}
		}
	],
	"meshes":[
		{
			"name":"Cylinder",
			"primitives":[
				{
					"attributes":{
						"POSITION":0,
						"NORMAL":1,
						"TEXCOORD_0":2
					},
					"indices":3,
					"material":0
				}
			]
		},
		{
			"name":"LGBTQ",
			"primitives":[
				{
					"attributes":{
						"POSITION":4,
						"NORMAL":5,
						"TEXCOORD_0":6
					},
					"indices":7,
					"material":1
				}
			]
		},
		{
			"name":"LGBTQ.001",
			"primitives":[
				{
					"attributes":{
						"POSITION":8,
						"NORMAL":9,
						"TEXCOORD_0":10
					},
					"indices":11,
					"material":2
				}
			]
		},
		{
			"name":"LGBTQ.002",
			"primitives":[
				{
					"attributes":{
						"POSITION":12,
						"NORMAL":13,
						"TEXCOORD_0":14
					},
					"indices":15,
					"material":3
				}
			]
		},
		{
			"name":"LGBTQ.003",
			"primitives":[
				{
					"attributes":{
						"POSITION":16,
						"NORMAL":17,
						"TEXCOORD_0":18
					},
					"indices":19,
					"material":4
				}
			]
		},
		{
			"name":"Cylinder.002",
			"primitives":[
				{
					"attributes":{
						"POSITION":20,
						"NORMAL":21,
						"TEXCOORD_0":22
					},
					"indices":3,
					"material":5
				}
			]
		}
	],
	"accessors":[
		{
			"bufferView":0,
			"componentType":5126,
			"count":3983,
			"max":[
				0.9960665106773376,
				1,
				0.9960665106773376
			],
			"min":[
				-0.9960665106773376,
				-1,
				-0.9960665106773376
			],
			"type":"VEC3"
		},
		{
			"bufferView":1,
			"componentType":5126,
			"count":3983,
			"type":"VEC3"
		},
		{
			"bufferView":2,
			"componentType":5126,
			"count":3983,
			"type":"VEC2"
		},
		{
			"bufferView":3,
			"componentType":5123,
			"count":6132,
			"type":"SCALAR"
		},
		{
			"bufferView":4,
			"componentType":5126,
			"count":1458,
			"max":[
				1.8459999561309814,
				0.019999999552965164,
				0.13900001347064972
			],
			"min":[
				-1.8280000686645508,
				-0.019999999552965164,
				-0.6910000443458557
			],
			"type":"VEC3"
		},
		{
			"bufferView":5,
			"componentType":5126,
			"count":1458,
			"type":"VEC3"
		},
		{
			"bufferView":6,
			"componentType":5126,
			"count":1458,
			"type":"VEC2"
		},
		{
			"bufferView":7,
			"componentType":5123,
			"count":4260,
			"type":"SCALAR"
		},
		{
			"bufferView":8,
			"componentType":5126,
			"count":1410,
			"max":[
				3.0965001583099365,
				0.019999999552965164,
				0.009000000543892384
			],
			"min":[
				-3.125500202178955,
				-0.019999999552965164,
				-0.6910000443458557
			],
			"type":"VEC3"
		},
		{
			"bufferView":9,
			"componentType":5126,
			"count":1410,
			"type":"VEC3"
		},
		{
			"bufferView":10,
			"componentType":5126,
			"count":1410,
			"type":"VEC2"
		},
		{
			"bufferView":11,
			"componentType":5123,
			"count":4092,
			"type":"SCALAR"
		},
		{
			"bufferView":12,
			"componentType":5126,
			"count":2816,
			"max":[
				2.3959999084472656,
				0.019999999552965164,
				0.23000000417232513
			],
			"min":[
				-2.4089999198913574,
				-0.019999999552965164,
				-0.6910000443458557
			],
			"type":"VEC3"
		},
		{
			"bufferView":13,
			"componentType":5126,
			"count":2816,
			"type":"VEC3"
		},
		{
			"bufferView":14,
			"componentType":5126,
			"count":2816,
			"type":"VEC2"
		},
		{
			"bufferView":15,
			"componentType":5123,
			"count":8256,
			"type":"SCALAR"
		},
		{
			"bufferView":16,
			"componentType":5126,
			"count":1512,
			"max":[
				2.6510000228881836,
				0.019999999552965164,
				0.13900001347064972
			],
			"min":[
				-2.578000068664551,
				-0.019999999552965164,
				-0.6910000443458557
			],
			"type":"VEC3"
		},
		{
			"bufferView":17,
			"componentType":5126,
			"count":1512,
			"type":"VEC3"
		},
		{
			"bufferView":18,
			"componentType":5126,
			"count":1512,
			"type":"VEC2"
		},
		{
			"bufferView":19,
			"componentType":5123,
			"count":4416,
			"type":"SCALAR"
		},
		{
			"bufferView":20,
			"componentType":5126,
			"count":3983,
			"max":[
				0.9960665106773376,
				1,
				0.9960665106773376
			],
			"min":[
				-0.9960665106773376,
				-1,
				-0.9960665106773376
			],
			"type":"VEC3"
		},
		{
			"bufferView":21,
			"componentType":5126,
			"count":3983,
			"type":"VEC3"
		},
		{
			"bufferView":22,
			"componentType":5126,
			"count":3983,
			"type":"VEC2"
		}
	],
	"bufferViews":[
		{
			"buffer":0,
			"byteLength":47796,
			"byteOffset":0,
			"target":34962
		},
		{
			"buffer":0,
			"byteLength":47796,
			"byteOffset":47796,
			"target":34962
		},
		{
			"buffer":0,
			"byteLength":31864,
			"byteOffset":95592,
			"target":34962
		},
		{
			"buffer":0,
			"byteLength":12264,
			"byteOffset":127456,
			"target":34963
		},
		{
			"buffer":0,
			"byteLength":17496,
			"byteOffset":139720,
			"target":34962
		},
		{
			"buffer":0,
			"byteLength":17496,
			"byteOffset":157216,
			"target":34962
		},
		{
			"buffer":0,
			"byteLength":11664,
			"byteOffset":174712,
			"target":34962
		},
		{
			"buffer":0,
			"byteLength":8520,
			"byteOffset":186376,
			"target":34963
		},
		{
			"buffer":0,
			"byteLength":16920,
			"byteOffset":194896,
			"target":34962
		},
		{
			"buffer":0,
			"byteLength":16920,
			"byteOffset":211816,
			"target":34962
		},
		{
			"buffer":0,
			"byteLength":11280,
			"byteOffset":228736,
			"target":34962
		},
		{
			"buffer":0,
			"byteLength":8184,
			"byteOffset":240016,
			"target":34963
		},
		{
			"buffer":0,
			"byteLength":33792,
			"byteOffset":248200,
			"target":34962
		},
		{
			"buffer":0,
			"byteLength":33792,
			"byteOffset":281992,
			"target":34962
		},
		{
			"buffer":0,
			"byteLength":22528,
			"byteOffset":315784,
			"target":34962
		},
		{
			"buffer":0,
			"byteLength":16512,
			"byteOffset":338312,
			"target":34963
		},
		{
			"buffer":0,
			"byteLength":18144,
			"byteOffset":354824,
			"target":34962
		},
		{
			"buffer":0,
			"byteLength":18144,
			"byteOffset":372968,
			"target":34962
		},
		{
			"buffer":0,
			"byteLength":12096,
			"byteOffset":391112,
			"target":34962
		},
		{
			"buffer":0,
			"byteLength":8832,
			"byteOffset":403208,
			"target":34963
		},
		{
			"buffer":0,
			"byteLength":47796,
			"byteOffset":412040,
			"target":34962
		},
		{
			"buffer":0,
			"byteLength":47796,
			"byteOffset":459836,
			"target":34962
		},
		{
			"buffer":0,
			"byteLength":31864,
			"byteOffset":507632,
			"target":34962
		}
	],
	"buffers":[
		{
			"byteLength":539496,
			"uri":"data:application/octet-stream;base64,"
		}
	]
}
