{
	"asset":{
		"generator":"Khronos glTF Blender I/O v3.6.27",
		"version":"2.0"
	},
	"scene":0,
	"scenes":[
		{
			"name":"Scene",
			"nodes":[
				0,
				1,
				2,
				3,
				4,
				5
			]
		}
	],
	"nodes":[
		{
			"mesh":0,
			"name":"Cylinder",
			"translation":[
				0,
				4.576789379119873,
				0
			]
		},
		{
			"mesh":1,
			"name":"Cylinder.001",
			"rotation":[
				0,
				1,
				0,
				0
			],
			"scale":[
				-1.1268784999847412,
				-0.05774523317813873,
				-1.1268784999847412
			],
			"translation":[
				0,
				9.81971549987793,
				0
			]
		},
		{
			"mesh":2,
			"name":"Cylinder.002",
			"scale":[
				2.1934568881988525,
				0.5061748027801514,
				2.1934568881988525
			],
			"translation":[
				0,
				10.33503532409668,
				0
			]
		},
		{
			"mesh":3,
			"name":"Cylinder.003",
			"rotation":[
				0,
				1,
				0,
				0
			],
			"scale":[
				-1.1268784999847412,
				-0.05774523317813873,
				-1.1268784999847412
			],
			"translation":[
				0,
				9.81971549987793,
				0
			]
		},
		{
			"mesh":4,
			"name":"Cylinder.004",
			"scale":[
				1.0099999904632568,
				1.0099999904632568,
				1.0099999904632568
			],
			"translation":[
				0,
				4.576789379119873,
				0
			]
		},
		{
			"mesh":5,
			"name":"Torus",
			"rotation":[
				0.0027518803253769875,
				-0.37616029381752014,
				0.0065135471522808075,
				0.9265276193618774
			],
			"scale":[
				0.4122307002544403,
				0.3339325189590454,
				0.5582614541053772
			],
			"translation":[
				1.4100079536437988,
				10.785229682922363,
				-0.9685227274894714
			]
		}
	],
	"materials":[
		{
			"doubleSided":true,
			"name":"Material.001",
			"pbrMetallicRoughness":{
				"metallicFactor":0,
				"roughnessFactor":0.5
			}
		},
		{
			"doubleSided":true,
			"name":"Material.004",
			"pbrMetallicRoughness":{
				"baseColorTexture":{
					"index":0
				},
				"metallicFactor":0,
				"roughnessFactor":0.5
			}
		}
	],
	"meshes":[
		{
			"name":"Cylinder.001",
			"primitives":[
				{
					"attributes":{
						"POSITION":0,
						"NORMAL":1,
						"TEXCOORD_0":2
					},
					"indices":3,
					"material":0
				}
			]
		},
		{
			"name":"Cylinder.002",
			"primitives":[
				{
					"attributes":{
						"POSITION":4,
						"NORMAL":5,
						"TEXCOORD_0":6
					},
					"indices":7,
					"material":0
				}
			]
		},
		{
			"name":"Cylinder",
			"primitives":[
				{
					"attributes":{
						"POSITION":8,
						"NORMAL":9,
						"TEXCOORD_0":10
					},
					"indices":11
				}
			]
		},
		{
			"name":"Cylinder.003",
			"primitives":[
				{
					"attributes":{
						"POSITION":12,
						"NORMAL":13,
						"TEXCOORD_0":14
					},
					"indices":15,
					"material":0
				}
			]
		},
		{
			"name":"Cylinder.004",
			"primitives":[
				{
					"attributes":{
						"POSITION":16,
						"NORMAL":17,
						"TEXCOORD_0":18
					},
					"indices":19,
					"material":1
				}
			]
		},
		{
			"name":"Torus",
			"primitives":[
				{
					"attributes":{
						"POSITION":20,
						"NORMAL":21,
						"TEXCOORD_0":22
					},
					"indices":23,
					"material":0
				}
			]
		}
	],
	"textures":[
		{
			"sampler":0,
			"source":0
		}
	],
	"images":[
		{
			"bufferView":20,
			"mimeType":"image/png",
			"name":"Kein Titel (3000 x 1400 px)"
		}
	],
	"accessors":[
		{
			"bufferView":0,
			"componentType":5126,
			"count":1429,
			"max":[
				3,
				5.082517147064209,
				3
			],
			"min":[
				-3,
				-4.535693168640137,
				-3
			],
			"type":"VEC3"
		},
		{
			"bufferView":1,
			"componentType":5126,
			"count":1429,
			"type":"VEC3"
		},
		{
			"bufferView":2,
			"componentType":5126,
			"count":1429,
			"type":"VEC2"
		},
		{
			"bufferView":3,
			"componentType":5123,
			"count":7866,
			"type":"SCALAR"
		},
		{
			"bufferView":4,
			"componentType":5126,
			"count":701,
			"max":[
				2.039747714996338,
				3.75,
				2.039747714996338
			],
			"min":[
				-2.039747714996338,
				-21.276805877685547,
				-2.039747714996338
			],
			"type":"VEC3"
		},
		{
			"bufferView":5,
			"componentType":5126,
			"count":701,
			"type":"VEC3"
		},
		{
			"bufferView":6,
			"componentType":5126,
			"count":701,
			"type":"VEC2"
		},
		{
			"bufferView":7,
			"componentType":5123,
			"count":2412,
			"type":"SCALAR"
		},
		{
			"bufferView":8,
			"componentType":5126,
			"count":258,
			"max":[
				1,
				1,
				1
			],
			"min":[
				-1,
				-1,
				-1
			],
			"type":"VEC3"
		},
		{
			"bufferView":9,
			"componentType":5126,
			"count":258,
			"type":"VEC3"
		},
		{
			"bufferView":10,
			"componentType":5126,
			"count":258,
			"type":"VEC2"
		},
		{
			"bufferView":11,
			"componentType":5123,
			"count":756,
			"type":"SCALAR"
		},
		{
			"bufferView":12,
			"componentType":5126,
			"count":198,
			"max":[
				2.039992094039917,
				-4.8582611083984375,
				2.039747714996338
			],
			"min":[
				-2.039503812789917,
				-12.458364486694336,
				-2.039747714996338
			],
			"type":"VEC3"
		},
		{
			"bufferView":13,
			"componentType":5126,
			"count":198,
			"type":"VEC3"
		},
		{
			"bufferView":14,
			"componentType":5126,
			"count":198,
			"type":"VEC2"
		},
		{
			"bufferView":15,
			"componentType":5123,
			"count":768,
			"type":"SCALAR"
		},
		{
			"bufferView":16,
			"componentType":5126,
			"count":320,
			"max":[
				3,
				3.4101762771606445,
				3
			],
			"min":[
				-3,
				-3.5785818099975586,
				-3
			],
			"type":"VEC3"
		},
		{
			"bufferView":17,
			"componentType":5126,
			"count":320,
			"type":"VEC3"
		},
		{
			"bufferView":18,
			"componentType":5126,
			"count":320,
			"type":"VEC2"
		},
		{
			"bufferView":19,
			"componentType":5123,
			"count":1488,
			"type":"SCALAR"
		},
		{
			"bufferView":21,
			"componentType":5126,
			"count":2425,
			"max":[
				1.2353026866912842,
				0.23883549869060516,
				1.2353025674819946
			],
			"min":[
				-1.2353029251098633,
				-0.23883549869060516,
				-1.2353026866912842
			],
			"type":"VEC3"
		},
		{
			"bufferView":22,
			"componentType":5126,
			"count":2425,
			"type":"VEC3"
		},
		{
			"bufferView":23,
			"componentType":5126,
			"count":2425,
			"type":"VEC2"
		},
		{
			"bufferView":24,
			"componentType":5123,
			"count":13824,
			"type":"SCALAR"
		}
	],
	"bufferViews":[
		{
			"buffer":0,
			"byteLength":17148,
			"byteOffset":0,
			"target":34962
		},
		{
			"buffer":0,
			"byteLength":17148,
			"byteOffset":17148,
			"target":34962
		},
		{
			"buffer":0,
			"byteLength":11432,
			"byteOffset":34296,
			"target":34962
		},
		{
			"buffer":0,
			"byteLength":15732,
			"byteOffset":45728,
			"target":34963
		},
		{
			"buffer":0,
			"byteLength":8412,
			"byteOffset":61460,
			"target":34962
		},
		{
			"buffer":0,
			"byteLength":8412,
			"byteOffset":69872,
			"target":34962
		},
		{
			"buffer":0,
			"byteLength":5608,
			"byteOffset":78284,
			"target":34962
		},
		{
			"buffer":0,
			"byteLength":4824,
			"byteOffset":83892,
			"target":34963
		},
		{
			"buffer":0,
			"byteLength":3096,
			"byteOffset":88716,
			"target":34962
		},
		{
			"buffer":0,
			"byteLength":3096,
			"byteOffset":91812,
			"target":34962
		},
		{
			"buffer":0,
			"byteLength":2064,
			"byteOffset":94908,
			"target":34962
		},
		{
			"buffer":0,
			"byteLength":1512,
			"byteOffset":96972,
			"target":34963
		},
		{
			"buffer":0,
			"byteLength":2376,
			"byteOffset":98484,
			"target":34962
		},
		{
			"buffer":0,
			"byteLength":2376,
			"byteOffset":100860,
			"target":34962
		},
		{
			"buffer":0,
			"byteLength":1584,
			"byteOffset":103236,
			"target":34962
		},
		{
			"buffer":0,
			"byteLength":1536,
			"byteOffset":104820,
			"target":34963
		},
		{
			"buffer":0,
			"byteLength":3840,
			"byteOffset":106356,
			"target":34962
		},
		{
			"buffer":0,
			"byteLength":3840,
			"byteOffset":110196,
			"target":34962
		},
		{
			"buffer":0,
			"byteLength":2560,
			"byteOffset":114036,
			"target":34962
		},
		{
			"buffer":0,
			"byteLength":2976,
			"byteOffset":116596,
			"target":34963
		},
		{
			"buffer":0,
			"byteLength":2635493,
			"byteOffset":119572
		},
		{
			"buffer":0,
			"byteLength":29100,
			"byteOffset":2755068,
			"target":34962
		},
		{
			"buffer":0,
			"byteLength":29100,
			"byteOffset":2784168,
			"target":34962
		},
		{
			"buffer":0,
			"byteLength":19400,
			"byteOffset":2813268,
			"target":34962
		},
		{
			"buffer":0,
			"byteLength":27648,
			"byteOffset":2832668,
			"target":34963
		}
	],
	"samplers":[
		{
			"magFilter":9729,
			"minFilter":9987
		}
	],
	"buffers":[
		{
			"byteLength":2860316,
			"uri":"data:application/octet-stream;base64,"
		}
	]
}
